<?xml version="1.0" encoding="utf-8"?>
<!-- Svg Vector Icons : http://www.onlinewebfonts.com/icon -->
<!DOCTYPE svg PUBLIC "-//W3C//DTD SVG 1.1//EN" "http://www.w3.org/Graphics/SVG/1.1/DTD/svg11.dtd">
<svg version="1.1" xmlns="http://www.w3.org/2000/svg" xmlns:xlink="http://www.w3.org/1999/xlink" x="0px" y="0px" viewBox="0 0 256 256" enable-background="new 0 0 256 256" xml:space="preserve">
<metadata> Svg Vector Icons : http://www.onlinewebfonts.com/icon </metadata>
<g><g><g><path fill="#FFFFFF" d="M124,11.1c-0.9,0.6-2.1,1.8-2.7,2.7c-0.9,1.6-1,2.6-1,11.9c0,10,0.1,10.3,1.2,12.1c1.4,2.1,4.1,3.5,6.5,3.5c2.4,0,5-1.4,6.5-3.5c1.2-1.8,1.2-2.1,1.2-12.1c0-9.4-0.1-10.3-1.1-11.9C132.4,10.2,127.5,8.9,124,11.1z"/><path fill="#FFFFFF" d="M53.9,41.9c-3.7,2-5.3,5.5-4.3,9.2c0.5,1.8,1.8,3.4,6.8,8.5c3.4,3.5,6.9,6.7,7.7,7.1c2.2,1.1,5.9,1.1,8-0.2c3.3-1.9,4.6-6.7,2.7-10.4C73.5,53.9,62,42.6,60.1,41.9C58.3,41.1,55.2,41.2,53.9,41.9z"/><path fill="#FFFFFF" d="M195.5,42.1c-2.2,1.1-13,11.9-14.2,14.2c-1.9,3.6-0.7,8.4,2.6,10.4c2,1.1,5.9,1.2,8,0.2c0.8-0.4,4.3-3.6,7.7-7.1c5-5.1,6.3-6.7,6.8-8.5c1-3.7-0.7-7.4-4.4-9.3C200.4,41,197.3,41.1,195.5,42.1z"/><path fill="#FFFFFF" d="M116.5,52.9c-14.4,2.6-28.9,11-38.5,22.3c-14.4,17-19,38-13.4,61.5c2.6,10.6,6.8,18.8,16.4,31.7c7.1,9.5,9.2,12.7,10.9,17.1l1.3,3.4l0.3,21.3c0.3,20.9,0.3,21.3,1.5,24.4c1.6,4.3,6.3,8.9,10.4,10.4c2.8,1.1,3.7,1.1,22.4,1.1c18.7,0,19.6-0.1,22.4-1.1c4.1-1.5,8.8-6.2,10.4-10.4c1.2-3,1.2-3.6,1.5-24.4c0.3-20.5,0.4-21.4,1.5-24.5c1.4-3.7,4.7-9,10.3-16.3c10.6-13.8,15.2-23.1,18.1-36.4c1.5-7.1,1.6-21.5,0.3-28c-2.8-13-8.6-24-17.7-33.2c-9.4-9.6-22.7-16.6-35.7-18.9C133.4,51.9,122,51.9,116.5,52.9z M140,69.2c16.5,4.2,30,16.7,35.3,32.7c2.1,6.1,2.6,10.9,2.3,19.3c-0.6,14.5-3.6,22.2-14.9,37.2c-3.7,5-7.9,10.9-9.2,13.1c-2.5,4.2-5.2,10.4-5.8,13.4c-0.8,3.9,1.3,3.6-19.8,3.6h-19l-0.3-1.4c-2.1-9.3-5.3-15.4-16.3-29.8c-7-9.2-10.5-15.8-12.5-23.4c-1.2-4.7-1.3-6.1-1.4-14.9c0-8.7,0.1-10.2,1.1-14.1c5.3-19.5,21.5-33.8,42-37C126.2,67.3,134.5,67.8,140,69.2z M146.4,216.3c0.1,11.6,0.1,12.3-0.9,13.2s-1.6,1-17.3,1c-13.9,0-16.5-0.1-17.4-0.8c-1.1-0.8-1.1-1-1.1-13c0-6.7,0.2-12.4,0.4-12.5c0.2-0.2,8.4-0.3,18.3-0.3l18,0.2L146.4,216.3z"/><path fill="#FFFFFF" d="M24.9,113.2c-2.6,1.3-4.6,4.3-4.6,6.7c0,2.1,1.7,5.2,3.7,6.6c1.6,1.1,2.2,1.2,11.7,1.3c9,0.1,10.2,0,11.8-0.8c2.2-1.2,3.9-3.6,4.4-6.1c0.5-2.7-1.5-6.2-4.4-7.7c-2.1-1.1-2.8-1.2-11.3-1.2C27.9,112.1,27,112.2,24.9,113.2z"/><path fill="#FFFFFF" d="M209.3,112.8c-5.1,2.3-6.6,8.4-3,12.2c2.7,2.8,3.4,3,13.6,3c8.3,0,9.6-0.1,11.5-1c2.3-1.1,4.4-4.1,4.4-6.4c0-3.1-2.7-6.8-5.8-8C227.8,111.8,211.2,111.9,209.3,112.8z"/><path fill="#FFFFFF" d="M67.7,169.4c-0.9,0.4-5.2,4.4-9.5,8.8c-7.5,7.5-8.1,8.2-8.4,10.4c-0.5,3.6,1,6.8,3.9,8.2c2.5,1.1,4.7,1.3,6.7,0.4c2.1-0.9,16.6-14.9,17.5-17c1.1-2.4,1-5.8-0.2-7.9C75.8,169.1,71,167.7,67.7,169.4z"/><path fill="#FFFFFF" d="M181.3,169.6c-3.6,1.9-5.1,6.6-3.2,10.6c1.1,2.3,15.3,16.1,17.5,16.9c5.7,2.4,11.6-2.3,10.7-8.4c-0.3-2.2-0.9-2.9-8.3-10.5c-4.4-4.4-8.7-8.4-9.6-8.8C186,168.3,183.6,168.4,181.3,169.6z"/></g></g></g>
</svg>
